<svg width="22" height="22" viewBox="0 0 22 22" fill="none" xmlns="http://www.w3.org/2000/svg">
<path d="M18.7648 0H5.82364C5.65196 0 5.48696 0.0685491 5.36563 0.190481L0.188662 5.36685C0.0679424 5.48817 0 5.65257 0 5.82364V18.7648C0 20.552 1.44863 22 3.23515 22H18.7648C20.552 22 22 20.5514 22 18.7648V3.23515C22 1.44802 20.5514 0 18.7648 0ZM5.17636 2.20934V3.23576C5.17636 4.30767 4.30706 5.17697 3.23515 5.17697H2.20874L5.17636 2.20934ZM20.7061 18.7648C20.7061 19.8368 19.8368 20.7061 18.7648 20.7061H3.23515C2.16324 20.7061 1.29394 19.8368 1.29394 18.7648V6.47091H3.23515C5.02228 6.47091 6.4703 5.02228 6.4703 3.23576V1.29394H18.7648C19.8368 1.29394 20.7061 2.16324 20.7061 3.23515V18.7648Z" fill="#1A1F25"/>
<path d="M17.2079 5.59957C18.4411 6.83648 18.4411 8.83775 17.2079 10.0747L11.2223 16.0603C9.53947 17.7425 6.81207 17.7425 5.12928 16.0603C3.44649 14.3775 3.44649 11.6501 5.12928 9.96729L9.0117 6.08487C9.26467 5.83191 9.67475 5.83191 9.92771 6.08487C10.1807 6.33783 10.1807 6.74791 9.92771 7.00088L6.04529 10.8833C4.8842 12.0753 4.90968 13.9826 6.1017 15.1437C7.27128 16.2829 9.13606 16.2829 10.3056 15.1437L16.2912 9.15805C17.021 8.42949 17.0216 7.24656 16.2931 6.51679C16.2931 6.51679 16.2919 6.51558 16.2912 6.51497C15.5518 5.80885 14.3876 5.80885 13.6488 6.51497L8.63377 11.53C8.35048 11.8133 8.35048 12.2719 8.63377 12.5552C8.91707 12.8385 9.37568 12.8385 9.65898 12.5552L12.5763 9.64881C12.8292 9.39585 13.2393 9.39585 13.4923 9.64881C13.7452 9.90178 13.7452 10.3119 13.4923 10.5648L10.5804 13.4766C9.7803 14.2392 8.52276 14.2392 7.72322 13.4766C6.93461 12.6874 6.93461 11.4086 7.72322 10.6194L12.7382 5.60442C13.9733 4.37357 15.9703 4.37114 17.2085 5.59896L17.2079 5.59957Z" fill="#5BC4BF"/>
</svg>
